<svg id="TWENTYONEPILOTS" xmlns="http://www.w3.org/2000/svg" width="773.759" height="201.349"><path id="Path_41" data-name="Path 41" d="m99.579 53.709-.562 75.083h-1.124l-1.406-75.083L94.519 0H70.913l-2.249 53.709-1.124 75.082h-1.124l-1.124-75.082L63.606 0H0v23.337h7.588v178.007H32.6V23.337h6.817l8.448 178.006h26.42l2.529-57.929 1.967-70.865h1.126l1.686 70.865 2.81 57.929h26.137L120.094 0h-18.548Zm23.882 147.635h37.1V178h-12.648v-73.955h10.679V80.7h-10.679V23.337h12.646V0h-37.1Zm71.667-156.073 2.529 50.338h-1.124l-3.654-49.494L189.506 0h-24.451v201.344h19.675v-45.556L181.636 98.7h1.124l5.06 54.836 4.215 47.806H214.8V0h-19.672Zm91.985-5.623-1.124 58.211h-1.124l-1.124-58.211L282.055 0h-63.044v23.337h7.589v178.007h25.013V23.337h6.8L269.969 145.1v56.242h25.013V145.1L309.036 0h-19.954ZM371.33 0h-38.783c-3.372 0-5.9 2.812-5.9 6.468v188.408c0 3.656 2.53 6.467 5.9 6.467h38.783c3.373 0 5.9-2.812 5.9-6.467V6.465c0-3.657-2.529-6.468-5.9-6.468m-17.144 181.381c0 1.688-.843 2.25-2.248 2.25s-2.248-.562-2.248-2.25V19.682c0-1.689.843-1.969 2.248-1.969s2.248.562 2.248 2.25Zm59.58-136.107 2.534 50.338h-1.124l-3.654-49.494L408.145 0h-24.451v201.344h19.675v-45.556L400.275 98.7h1.125l5.06 54.836 4.215 47.806h22.765V0h-19.674Zm26.413 156.073h37.1V178h-12.648v-73.955h10.679V80.7h-10.679V23.337h12.648V0h-37.1ZM542.194 0h-44.967v201.344h23.608V149.6h21.359c3.373 0 5.9-2.812 5.9-6.467V6.465c0-3.657-2.529-6.468-5.9-6.468m-16.863 129.357c0 1.125-.562 1.969-1.686 1.969h-2.81V18.275h2.81c1.124 0 1.686.844 1.686 1.969Zm28.942 71.99h24.451V0h-24.451ZM610.2 0h-24.734v201.344h34.85v-22.778H610.2Zm59.3 0h-38.788c-3.372 0-5.9 2.812-5.9 6.468v188.408c0 3.656 2.53 6.467 5.9 6.467H669.5c3.374 0 5.9-2.812 5.9-6.467V6.465c0-3.657-2.53-6.465-5.9-6.465m-17.148 181.378c0 1.688-.843 2.25-2.248 2.25s-2.248-.562-2.248-2.25V19.682c0-1.689.843-1.969 2.248-1.969s2.248.562 2.248 2.25ZM679.33 23.337h7.589v178.007h25.013V23.337h7.87V0H679.33Zm94.429 56.243V6.465c0-3.657-2.529-6.468-5.9-6.468h-38.5c-3.372 0-5.9 2.812-5.9 6.468v91.394c0 3.093 1.124 5.343 3.374 6.467l21.067 10.686c2.248 1.125 2.81 2.53 2.81 4.78V182.5c0 1.687-.562 2.249-1.967 2.249-1.686 0-2.248-.562-2.248-2.249v-60.176l-23.046-.563v73.115c0 3.656 2.531 6.467 5.9 6.467h38.5c3.373 0 5.9-2.812 5.9-6.467v-91.112a8.722 8.722 0 0 0-5.059-8.436l-19.392-9.562c-1.967-.843-2.81-1.968-2.81-4.78v-62.43c0-1.406.562-1.969 1.967-1.969 1.686 0 2.248.563 2.248 1.969V79.58Z" transform="translate(0 .005)" fill="#231F20"/></svg>